C:\Users\lingh\OneDrive - KTH\ExMaterials\7-Doctor\Research\2-simulation\PredSimResults\Falisse_et_al_20220.2weak\Falisse_et_al_2022_v1.mot
version=1
nRows=4
nColumns=124
inDegrees=yes
endheader
                time	         pelvis_tilt	         pelvis_list	     pelvis_rotation	           pelvis_tx	           pelvis_ty	           pelvis_tz	       hip_flexion_r	     hip_adduction_r	      hip_rotation_r	        knee_angle_r	       ankle_angle_r	    subtalar_angle_r	         mtp_angle_r	       hip_flexion_l	     hip_adduction_l	      hip_rotation_l	        knee_angle_l	       ankle_angle_l	    subtalar_angle_l	         mtp_angle_l	    lumbar_extension	      lumbar_bending	     lumbar_rotation	          arm_flex_r	           arm_add_r	           arm_rot_r	        elbow_flex_r	          arm_flex_l	           arm_add_l	           arm_rot_l	        elbow_flex_l	glut_med1_r/activation	glut_med2_r/activation	glut_med3_r/activation	glut_min1_r/activation	glut_min2_r/activation	glut_min3_r/activation	semimem_r/activation	semiten_r/activation	bifemlh_r/activation	bifemsh_r/activation	    sar_r/activation	add_long_r/activation	add_brev_r/activation	add_mag1_r/activation	add_mag2_r/activation	add_mag3_r/activation	    tfl_r/activation	   pect_r/activation	   grac_r/activation	glut_max1_r/activation	glut_max2_r/activation	glut_max3_r/activation	iliacus_r/activation	  psoas_r/activation	quad_fem_r/activation	    gem_r/activation	   peri_r/activation	rect_fem_r/activation	vas_med_r/activation	vas_int_r/activation	vas_lat_r/activation	med_gas_r/activation	lat_gas_r/activation	 soleus_r/activation	tib_post_r/activation	flex_dig_r/activation	flex_hal_r/activation	tib_ant_r/activation	per_brev_r/activation	per_long_r/activation	per_tert_r/activation	ext_dig_r/activation	ext_hal_r/activation	glut_med1_l/activation	glut_med2_l/activation	glut_med3_l/activation	glut_min1_l/activation	glut_min2_l/activation	glut_min3_l/activation	semimem_l/activation	semiten_l/activation	bifemlh_l/activation	bifemsh_l/activation	    sar_l/activation	add_long_l/activation	add_brev_l/activation	add_mag1_l/activation	add_mag2_l/activation	add_mag3_l/activation	    tfl_l/activation	   pect_l/activation	   grac_l/activation	glut_max1_l/activation	glut_max2_l/activation	glut_max3_l/activation	iliacus_l/activation	  psoas_l/activation	quad_fem_l/activation	    gem_l/activation	   peri_l/activation	rect_fem_l/activation	vas_med_l/activation	vas_int_l/activation	vas_lat_l/activation	med_gas_l/activation	lat_gas_l/activation	 soleus_l/activation	tib_post_l/activation	flex_dig_l/activation	flex_hal_l/activation	tib_ant_l/activation	per_brev_l/activation	per_long_l/activation	per_tert_l/activation	ext_dig_l/activation	ext_hal_l/activation	 ercspn_r/activation	 ercspn_l/activation	 intobl_r/activation	 intobl_l/activation	 extobl_r/activation	 extobl_l/activation	
          0.56250386	         -6.78381835	          4.66476369	        -11.77313217	          0.76105539	          0.89702547	          0.01152303	        -12.50505057	         -4.89964954	          4.56313138	        -11.47920262	          3.60241537	          3.59948088	         35.93823847	         34.02839643	          1.46075296	         -3.32713871	        -12.70895538	         12.27631079	         -5.12622358	          0.34567208	          2.49443773	         -1.28794691	          0.32422066	         -6.26244849	        -13.49464731	         15.67032572	        102.58460776	        -27.10309750	        -14.11058304	         18.27718283	         20.71610736	          0.05825303	          0.07448380	          0.08372830	          0.05000037	          0.05495658	          0.07050805	          0.05000012	          0.05000003	          0.05000012	          0.05937510	          0.05251081	          0.24516730	          0.11372358	          0.08564350	          0.05000040	          0.05000006	          0.06260560	          0.05999260	          0.07050821	          0.05000032	          0.07050790	          0.07920797	          0.09206030	          0.31001650	          0.11807022	          0.09942712	          0.08372832	          0.26227208	          0.10897959	          0.13182940	          0.11107278	          0.45023113	          0.67920168	          0.14123447	          0.59430499	          0.61554488	          0.61875781	          0.05000000	          0.05000000	          0.06222890	          0.05000000	          0.05000000	          0.05000001	          0.21188650	          0.05000016	          0.05984965	          0.14688440	          0.08152248	          0.05000016	          0.16899058	          0.05000002	          0.05000001	          0.05000007	          0.05000015	          0.07050802	          0.08372827	          0.05937513	          0.05937512	          0.31848520	          0.07050806	          0.07050790	          0.08112506	          0.05000069	          0.22045693	          0.26327541	          0.07050796	          0.07050796	          0.06441796	          0.05000003	          0.05000023	          0.07050796	          0.16154678	          0.17540207	          0.15114258	          0.05000000	          0.05000000	          0.05000000	          0.07050795	          0.05937513	          0.05942772	          0.57651763	          0.36279137	          0.21353802	          0.46557972	          0.55598331	          0.34165790	          0.06938206	          0.12008659	          0.05000000	          0.13233985	          0.05000000	          0.05937506	
          0.57375394	         -6.78436096	          4.35222388	        -11.85247836	          0.77908120	          0.89505565	          0.01227183	        -13.32685275	         -4.77984678	          3.97167192	        -12.00649682	          2.32402856	          3.87026255	         36.86103101	         33.70485251	          1.34907574	         -3.11514980	        -14.16307856	         11.70313644	         -5.42451590	          0.27435019	          2.64423336	         -1.51123655	          0.28324164	         -6.28844525	        -13.52593454	         16.33065180	        105.32706804	        -28.87348893	        -14.06191482	         18.27592618	         21.38060356	          0.05000014	          0.06272315	          0.07050797	          0.05000016	          0.05000026	          0.05937517	          0.05000032	          0.05000035	          0.05000004	          0.05000007	          0.05000018	          0.33185434	          0.16399996	          0.07212082	          0.08313422	          0.12914033	          0.05272051	          0.05052009	          0.05937528	          0.05000050	          0.05937508	          0.06670140	          0.07752438	          0.35870538	          0.09942744	          0.08372801	          0.07050799	          0.22086046	          0.09177225	          0.11101414	          0.09353490	          0.39015046	          0.61692716	          0.13636604	          0.56265892	          0.57006255	          0.58062549	          0.05000000	          0.05000000	          0.05240323	          0.05000000	          0.05000000	          0.05000001	          0.32767739	          0.12036370	          0.19246869	          0.12369208	          0.06865077	          0.16865834	          0.15447600	          0.09389954	          0.08624529	          0.08372825	          0.05937510	          0.05937511	          0.07050794	          0.05000006	          0.05000005	          0.33472172	          0.05937538	          0.05937504	          0.06831579	          0.05000025	          0.34596306	          0.31543210	          0.05937506	          0.05937506	          0.05424666	          0.07050796	          0.31790365	          0.05937506	          0.13603925	          0.14770685	          0.12727783	          0.05906047	          0.05937505	          0.05310692	          0.05937505	          0.05000007	          0.05004436	          0.70237827	          0.31100061	          0.21385277	          0.39206671	          0.67649140	          0.36976593	          0.09570648	          0.10112544	          0.05000000	          0.16552948	          0.05000000	          0.05000000	
          0.58500401	         -6.78354187	          4.02314528	        -11.86843268	          0.79706511	          0.89330526	          0.01296297	        -13.91962396	         -4.61824835	          3.35726176	        -12.94821518	          1.10381245	          4.15063975	         37.41265560	         33.29714834	          1.25021832	         -2.90358178	        -15.55081256	         11.29983438	         -5.73830788	          0.26334486	          2.79395653	         -1.74341623	          0.23734943	         -6.29240913	        -13.54747138	         16.93940946	        107.75430114	        -30.44540044	        -13.99286245	         18.36077543	         21.81232048	          0.21094241	          0.05281945	          0.05937507	          0.14112397	          0.05000045	          0.05000014	          0.05001372	          0.05000003	          0.05000001	          0.05000003	          0.05000021	          0.37117087	          0.18728227	          0.06073328	          0.07000778	          0.14398570	          0.05000024	          0.05000014	          0.05000020	          0.05000030	          0.05000009	          0.05616955	          0.06528366	          0.41027597	          0.08372828	          0.07050773	          0.05937510	          0.18598755	          0.12746909	          0.13451822	          0.11771367	          0.32854741	          0.53771341	          0.13045256	          0.53540252	          0.53668130	          0.54883544	          0.05000000	          0.05000002	          0.05000003	          0.05000001	          0.05000000	          0.05000001	          0.56070489	          0.47066006	          0.47057472	          0.29576221	          0.31079844	          0.34338227	          0.13008492	          0.11103485	          0.08700023	          0.07050793	          0.05000012	          0.05000004	          0.05937505	          0.05000003	          0.05937508	          0.36668158	          0.05000033	          0.05000007	          0.05752908	          0.31992338	          0.42081066	          0.37601513	          0.05000000	          0.05000000	          0.05000001	          0.05937508	          0.26801295	          0.05000000	          0.11455928	          0.13594021	          0.15095051	          0.05000000	          0.05000000	          0.05000000	          0.05000000	          0.05000001	          0.05000001	          0.77100920	          0.38365327	          0.19423961	          0.65261052	          0.69863773	          0.48102970	          0.14020032	          0.09293236	          0.05000000	          0.16933548	          0.05000000	          0.05000000	
          0.59625409	         -6.78178673	          3.68478562	        -11.81329892	          0.81482371	          0.89195802	          0.01356552	        -14.26074440	         -4.42774056	          2.72318585	        -14.30073234	         -0.07172453	          4.44553565	         37.48524414	         32.94160181	          1.15712746	         -2.71292345	        -16.99219223	         10.82319906	         -6.01937401	          0.23771863	          2.92910181	         -1.99026648	          0.19083057	         -6.26353536	        -13.55356778	         17.48526908	        109.82854797	        -31.76645050	        -13.91212985	         18.51824327	         21.99145629	          0.17763554	          0.05000002	          0.05000002	          0.11884118	          0.05000029	          0.05000006	          0.05000893	          0.05000004	          0.05000001	          0.05000003	          0.05000020	          0.38696086	          0.29506580	          0.05114392	          0.07071378	          0.17237631	          0.05000025	          0.06672378	          0.05000002	          0.05000028	          0.05000006	          0.05000002	          0.06538449	          0.42847645	          0.07050795	          0.05937487	          0.05000005	          0.15662093	          0.11793182	          0.12696141	          0.13042263	          0.27667120	          0.45281083	          0.12738685	          0.51617124	          0.51525516	          0.52598994	          0.05000000	          0.05000005	          0.05000018	          0.05000001	          0.05000000	          0.05000001	          0.68519364	          0.54702849	          0.52926924	          0.28281390	          0.36199797	          0.35770839	          0.10954510	          0.12016859	          0.09006744	          0.05937504	          0.05000009	          0.05000000	          0.05000000	          0.05000001	          0.05000011	          0.38659185	          0.05000013	          0.05000004	          0.05000003	          0.36388906	          0.47180129	          0.41203869	          0.05000000	          0.05000000	          0.05000003	          0.05000008	          0.22569501	          0.05000000	          0.18985083	          0.23806146	          0.21915155	          0.05000000	          0.05000000	          0.05000000	          0.05000000	          0.05000001	          0.05000000	          0.83285854	          0.35715432	          0.18921464	          0.69709053	          0.74057224	          0.47209471	          0.14977167	          0.09431825	          0.05000000	          0.14259815	          0.05000000	          0.05000000	
